<svg version="1.1" viewBox="0.0 0.0 377.9527559055118 377.9527559055118" fill="none" stroke="none" stroke-linecap="square" stroke-miterlimit="10" xmlns:xlink="http://www.w3.org/1999/xlink" xmlns="http://www.w3.org/2000/svg"><clipPath id="ge79f004256_0_0.0"><path d="m0 0l377.95276 0l0 377.95276l-377.95276 0l0 -377.95276z" clip-rule="nonzero"/></clipPath><g clip-path="url(#ge79f004256_0_0.0)"><path fill="#000000" fill-opacity="0.0" d="m0 0l377.95276 0l0 377.95276l-377.95276 0z" fill-rule="evenodd"/><path fill="#00b491" d="m6.446194 188.98163l0 0c0 -100.81154 81.72389 -182.53543 182.53543 -182.53543l0 0c48.411407 0 94.84 19.231358 129.07205 53.46339c34.232025 34.232033 53.46338 80.66064 53.46338 129.07205l0 0c0 100.81152 -81.72391 182.53543 -182.53543 182.53543l0 0c-100.81154 0 -182.53543 -81.72391 -182.53543 -182.53543z" fill-rule="evenodd"/><path fill="#ffffff" d="m188.98163 310.09973l0 0c-14.020203 0 -25.385834 -11.365601 -25.385834 -25.385834l0 -191.46455c0 -6.7327423 2.6745758 -13.189728 7.4353485 -17.950493c4.7607574 -4.760765 11.217743 -7.4353333 17.950485 -7.4353333l0 0l0 0c14.020203 0 25.385818 11.365623 25.385818 25.385826l0 191.46455c0 14.020233 -11.365616 25.385834 -25.385818 25.385834z" fill-rule="evenodd"/><path fill="#ffffff" d="m67.86352 188.98163l0 0c0 -14.020203 11.365623 -25.385834 25.385826 -25.385834l191.46455 0c6.7327576 0 13.189728 2.6745758 17.9505 7.4353485c4.7607727 4.7607574 7.4353333 11.217743 7.4353333 17.950485l0 0l0 0c0 14.020203 -11.365601 25.385818 -25.385834 25.385818l-191.46455 0c-14.020203 0 -25.385826 -11.365616 -25.385826 -25.385818z" fill-rule="evenodd"/></g></svg>