<svg version="1.1" viewBox="0.0 0.0 377.9527559055118 377.9527559055118" fill="none" stroke="none" stroke-linecap="square" stroke-miterlimit="10" xmlns:xlink="http://www.w3.org/1999/xlink" xmlns="http://www.w3.org/2000/svg"><clipPath id="ge77c3f629a_0_21.0"><path d="m0 0l377.95276 0l0 377.95276l-377.95276 0l0 -377.95276z" clip-rule="nonzero"/></clipPath><g clip-path="url(#ge77c3f629a_0_21.0)"><path fill="#000000" fill-opacity="0.0" d="m0 0l377.95276 0l0 377.95276l-377.95276 0z" fill-rule="evenodd"/><path fill="#00b491" d="m6.446194 188.98163l0 0c0 -100.81154 81.72389 -182.53543 182.53543 -182.53543l0 0c48.411407 0 94.84 19.231358 129.07205 53.46339c34.232025 34.232033 53.46338 80.66064 53.46338 129.07205l0 0c0 100.81152 -81.72391 182.53543 -182.53543 182.53543l0 0c-100.81154 0 -182.53543 -81.72391 -182.53543 -182.53543z" fill-rule="evenodd"/><path fill="#ffffff" d="m188.97849 241.47488l0 0c-5.1172485 0 -9.2655945 -4.148346 -9.2655945 -9.2655945l0 -140.4538c0 -2.4573898 0.97618103 -4.8141327 2.7138214 -6.5517654c1.7376404 -1.7376404 4.0943756 -2.713829 6.551773 -2.713829l0 0l0 0c5.1172333 0 9.265579 4.148346 9.265579 9.2655945l0 140.4538c0 5.1172485 -4.148346 9.2655945 -9.265579 9.2655945z" fill-rule="evenodd"/><path fill="#ffffff" d="m114.36813 166.13615l0 0c-3.616867 -3.616867 -3.616867 -9.480957 0 -13.097824l64.83292 -64.83291c1.7368774 -1.7368774 4.0925903 -2.7126465 6.5489044 -2.7126465c2.456314 0 4.812027 0.97576904 6.5489197 2.7126465l0 0l0 0c3.6168518 3.616867 3.6168518 9.480957 0 13.097824l-64.83292 64.83291c-3.616867 3.616867 -9.480957 3.616867 -13.097824 0z" fill-rule="evenodd"/><path fill="#ffffff" d="m263.58884 166.13615l0 0c3.6168518 -3.616867 3.6168518 -9.480957 0 -13.097824l-64.83293 -64.83291c-1.7368774 -1.7368774 -4.0925903 -2.7126465 -6.5489044 -2.7126465c-2.456314 0 -4.812027 0.97576904 -6.5489197 2.7126465l0 0l0 0c-3.6168518 3.616867 -3.6168518 9.480957 0 13.097824l64.83292 64.83291c3.616867 3.616867 9.480957 3.616867 13.097839 0z" fill-rule="evenodd"/><path fill="#ffffff" d="m109.48359 271.58258l0 0c0 -5.1161194 4.147415 -9.263519 9.263512 -9.263519l140.45859 0c2.4568481 0 4.8130493 0.97598267 6.550293 2.7132263c1.7372437 1.7372437 2.7132263 4.093445 2.7132263 6.550293l0 0l0 0c0 5.116089 -4.1474304 9.263519 -9.263519 9.263519l-140.45859 0c-5.1160965 0 -9.263512 -4.1474304 -9.263512 -9.263519z" fill-rule="evenodd"/></g></svg>